<svg data-name="LANEIGE" xmlns="http://www.w3.org/2000/svg" viewBox="0 0 120.56 20">
  <defs><style>.logo-path{fill:#79a3dc}</style></defs>
  <path class="logo-path" d="M77.57.32h2.31v19.2h-2.31zM11.62 17.44a8.53 8.53 0 0 1-.68 1.21 1.54 1.54 0 0 1-1.48.89H0V1.2A.84.84 0 0 1 .84.36h1.47v17.07zM37.82.35v19.18h2.3V6l10.27 13.16a1.12 1.12 0 0 0 .88.36h.25V.36h-2.24v14.27L38.27.19a.25.25 0 0 0-.45.16zM24 5.05L29.76 19a.85.85 0 0 0 .77.53h1.68L24.2.27a.27.27 0 0 0-.5 0l-8 19.25h1.67a.85.85 0 0 0 .78-.53zM58.44.36h12.18a8.75 8.75 0 0 1-.68 1.2 1.54 1.54 0 0 1-1.48.89h-7.72v6.33h8.71v1.8h-8.71v6.86h7.68a1.54 1.54 0 0 1 1.48.89 8.75 8.75 0 0 1 .68 1.2H58.4V.36h12.22M101.76 5.16a6.7 6.7 0 0 0-2.26-3.5 7.62 7.62 0 0 0-5-1.66 7.17 7.17 0 0 0-5.87 2.75A11.25 11.25 0 0 0 86.44 10a11.32 11.32 0 0 0 2.19 7.28A7.21 7.21 0 0 0 94.52 20a7.35 7.35 0 0 0 5.48-2.16 7.84 7.84 0 0 0 2.07-5.71V9.64H97a1.6 1.6 0 0 0-1.49.89l-.68.92h5v.68a5.65 5.65 0 0 1-1.44 4.12 5 5 0 0 1-3.85 1.45 4.93 4.93 0 0 1-4.1-1.87 9.07 9.07 0 0 1-1.7-5.83 9.06 9.06 0 0 1 1.69-5.8 4.93 4.93 0 0 1 4.09-1.9A5.33 5.33 0 0 1 98 3.43a8.71 8.71 0 0 1 1 1.12 1.32 1.32 0 0 0 1.06.61zM108.37.36h12.19a8.75 8.75 0 0 1-.68 1.2 1.54 1.54 0 0 1-1.49.89h-7.71v6.33h8.71v1.8h-8.71v6.86h7.67a1.54 1.54 0 0 1 1.49.89 8.75 8.75 0 0 1 .68 1.2h-12.19V.36h12.23"/></svg>
